MoBL_ARMS_module2_4_allmuscles_wrist_states		
version=1		
nRows=303		
nColumns=3		
inDegrees=yes		
		
# SIMM Motion File Header:		
name MoBL_ARMS_module2_4_allmuscles_wrist_states		
datacolumns 3		
datarows 303		
otherdata 1		
range 0 0.672470596		
endheader		
time	deviation	flexion
0	0.1857	-0.391199999
0.001215624	0.185640498	-0.391008331
0.002176323	0.185516501	-0.390589994
0.003137022	0.185334939	-0.389946105
0.004199755	0.185073427	-0.388993786
0.005262487	0.184748814	-0.387824566
0.006325219	0.184361014	-0.386478597
0.008392308	0.183439873	-0.383497352
0.010459396	0.182347916	-0.380238615
0.012526484	0.18116187	-0.376901657
0.014593573	0.179959814	-0.373646706
0.017446127	0.178399471	-0.369523699
0.020298681	0.177075112	-0.366057935
0.024269644	0.1757783	-0.362646108
0.028240608	0.17519393	-0.361079018
0.033180867	0.175432121	-0.36168704
0.038121126	0.17660568	-0.364756418
0.044161927	0.179053789	-0.370936458
0.045883393	0.179913587	-0.37302715
0.04846943	0.181312292	-0.37634251
0.051004574	0.182786949	-0.379730389
0.053250898	0.184160543	-0.382795982
0.055497223	0.185580883	-0.385884368
0.057743547	0.187033303	-0.388966955
0.059989872	0.188504353	-0.392021699
0.061963585	0.189802723	-0.39466955
0.063937299	0.191099098	-0.397274467
0.06638336	0.192693948	-0.400432466
0.068829422	0.194267269	-0.403501448
0.070784623	0.195505025	-0.40588388
0.072739824	0.196723027	-0.40819959
0.075254929	0.198259625	-0.411077448
0.077770034	0.199762805	-0.413841951
0.079659658	0.200871435	-0.41584674
0.081549282	0.201963667	-0.417792726
0.084152182	0.203443893	-0.420383403
0.086492791	0.204753642	-0.422630596
0.0888334	0.206045895	-0.424805123
0.090785954	0.207112383	-0.426566019
0.092738507	0.208170005	-0.428279603
0.095196089	0.209490959	-0.430369531
0.09765367	0.210803417	-0.43238516
0.099615519	0.211847282	-0.433940909
0.101577368	0.212890011	-0.435449037
0.103987279	0.214173196	-0.437233827
0.10639719	0.215464391	-0.438933489
0.108493157	0.216599128	-0.440325139
0.110589125	0.217749672	-0.441613294
0.112685092	0.218920197	-0.442770989
0.114781059	0.220113819	-0.443769226
0.117464526	0.221677923	-0.444770735
0.119488229	0.222883364	-0.445292938
0.121511931	0.224108438	-0.445595737
0.123962102	0.225612379	-0.445650266
0.126412273	0.22713088	-0.445347249
0.128303281	0.228306922	-0.444861394
0.130194288	0.229481848	-0.44415188
0.132804755	0.231094621	-0.442800527
0.135134388	0.232518157	-0.441228087
0.13746402	0.233921185	-0.439310457
0.139439985	0.235091898	-0.437415855
0.141415949	0.23624275	-0.435279317
0.143841653	0.23762608	-0.432334389
0.146267357	0.238974743	-0.429047852
0.148255288	0.240052585	-0.426111615
0.150243219	0.241103973	-0.422967309
0.152683454	0.242354503	-0.41883728
0.155123689	0.243553294	-0.414424454
0.157064936	0.244462298	-0.410720675
0.159006183	0.245324692	-0.406850072
0.161504377	0.246357852	-0.401626421
0.164002572	0.247300261	-0.39613119
0.165901304	0.247956353	-0.391774076
0.167800035	0.24856293	-0.387262974
0.17037725	0.249312505	-0.380897214
0.172954464	0.249983763	-0.374254376
0.174786119	0.250416392	-0.369364267
0.176617774	0.250813726	-0.364332071
0.179304361	0.251334121	-0.35669036
0.181990948	0.251781143	-0.348736366
0.183755351	0.252035251	-0.343343596
0.185519754	0.252258074	-0.337818575
0.188366613	0.252550961	-0.328630111
0.19090726	0.25274154	-0.320149953
0.19296024	0.252845893	-0.313107925
0.19501322	0.252906274	-0.305900114
0.1970662	0.252924745	-0.298532594
0.199744936	0.252891143	-0.288693905
0.201763267	0.252826657	-0.281125027
0.203781598	0.252731143	-0.273433735
0.206254825	0.252573838	-0.263856147
0.208728051	0.252373204	-0.254125009
0.210566518	0.252195828	-0.246800043
0.212404985	0.251993784	-0.239402797
0.215053249	0.251657837	-0.228629755
0.217453414	0.251305535	-0.218756891
0.219853579	0.250905753	-0.20879167
0.221762313	0.25055296	-0.200808152
0.223671046	0.250168776	-0.192778357
0.22624781	0.249599827	-0.181873193
0.228566118	0.249038157	-0.172005494
0.230884425	0.248428751	-0.162091419
0.232606874	0.247944983	-0.154699403
0.234757642	0.247305822	-0.145441757
0.236908409	0.246630661	-0.136157171
0.240117493	0.245554952	-0.122265518
0.24170836	0.244991226	-0.115365839
0.243679608	0.244265063	-0.106807318
0.246716311	0.243088356	-0.093608673
0.249120326	0.242109483	-0.083153202
0.251220443	0.241222613	-0.074018778
0.25332056	0.240308446	-0.064887114
0.255420677	0.239369295	-0.055761482
0.257520794	0.238407519	-0.046645401
0.260181939	0.237159955	-0.035113924
0.262206346	0.236191874	-0.026361597
0.264230752	0.23520947	-0.017631285
0.266684438	0.234002243	-0.007085695
0.268892089	0.232903204	0.002362427
0.27109974	0.231794537	0.011766594
0.273307391	0.230678657	0.021121265
0.275515041	0.229557626	0.030421008
0.277722692	0.228432698	0.039660384
0.279930343	0.227304422	0.048833965
0.282137994	0.226172952	0.057936533
0.284345645	0.225038308	0.066963235
0.286553295	0.223900617	0.075909722
0.288760946	0.222760139	0.084772208
0.290968597	0.221617334	0.093547536
0.293176248	0.22047227	0.102232863
0.294407555	0.219832612	0.107037021
0.295638863	0.219192653	0.111811981
0.299343351	0.217264615	0.125997978
0.302044868	0.215854175	0.136169736
0.30395366	0.214854644	0.143267576
0.305862452	0.213852318	0.15029156
0.308478175	0.212473734	0.159797666
0.310818775	0.211234799	0.168188307
0.313159375	0.209990496	0.176471346
0.315114644	0.208946556	0.183309558
0.317069913	0.207897879	0.190075192
0.319563809	0.206551938	0.198601601
0.322057705	0.205194326	0.207015676
0.323967477	0.204145229	0.213385227
0.325877249	0.203086954	0.21969253
0.328461896	0.201639388	0.228132268
0.330772613	0.200330104	0.235586182
0.33308333	0.199006354	0.242956121
0.33509271	0.197843329	0.249298071
0.33710209	0.196669137	0.255578654
0.33911147	0.195483818	0.261798366
0.341874319	0.193835971	0.270251652
0.343905751	0.19261119	0.276394694
0.345937183	0.191375467	0.282476774
0.34841646	0.189852461	0.289817423
0.350632277	0.188476035	0.29630154
0.352848093	0.187079865	0.30271226
0.35506391	0.185654651	0.309046741
0.357279727	0.184189792	0.315301702
0.359495543	0.182676954	0.321474701
0.36171136	0.181112544	0.327565191
0.363927177	0.179495783	0.333573752
0.366142993	0.177821911	0.339499356
0.368118137	0.176272711	0.34470847
0.37009328	0.174659011	0.349845036
0.372096438	0.172946443	0.354976479
0.374099595	0.171151461	0.36002718
0.377252747	0.168168414	0.367819175
0.379179707	0.16626765	0.372495106
0.381106666	0.164322722	0.377115384
0.383709081	0.161643074	0.383281767
0.385992455	0.159252783	0.388637419
0.388275829	0.156831611	0.393956423
0.390559202	0.154385456	0.399253638
0.392607971	0.152177678	0.404001329
0.39465674	0.149966312	0.408756329
0.396705509	0.147757017	0.413529562
0.397081564	0.147351847	0.414408434
0.39745762	0.146946657	0.415288243
0.398350736	0.145984305	0.417381802
0.401460365	0.142630534	0.424723008
0.404140408	0.139726074	0.431126126
0.406365938	0.137296659	0.436504352
0.408591469	0.134849423	0.441942562
0.410816999	0.132383654	0.44744378
0.413042529	0.129897617	0.453009682
0.415268059	0.127386586	0.458639938
0.416921683	0.125500057	0.462863458
0.419180803	0.1228863	0.468684622
0.422157284	0.119363984	0.476432251
0.424253203	0.116821983	0.481930015
0.426349121	0.11422483	0.487452865
0.42844504	0.111571074	0.492992176
0.430540958	0.108861596	0.498539666
0.433242584	0.105291912	0.505689737
0.435189281	0.102670902	0.510833255
0.437135979	0.100013733	0.515963346
0.439700564	0.096465218	0.522692559
0.442003627	0.093238934	0.528698889
0.444306691	0.089981041	0.534662593
0.446324021	0.087104995	0.539845674
0.448341352	0.084211156	0.544985981
0.450358682	0.081301659	0.55007962
0.453052402	0.07739501	0.556803249
0.455197879	0.074268736	0.562092084
0.457343356	0.071133919	0.567320961
0.459488833	0.067996251	0.572489895
0.46163431	0.064862172	0.577599806
0.463779787	0.061737645	0.582652466
0.465925264	0.058626319	0.58765075
0.468550598	0.054837921	0.593699077
0.470507203	0.052027707	0.598163373
0.472463808	0.049229218	0.602595269
0.474994101	0.045628941	0.608285374
0.477016923	0.04276764	0.61280599
0.479450606	0.039346613	0.618217402
0.481884289	0.035948462	0.623604956
0.483787939	0.033304323	0.627806602
0.485691589	0.030670335	0.632000272
0.488234872	0.027164517	0.637594524
0.490778156	0.023672583	0.643182202
0.492662386	0.021095085	0.647318266
0.494546617	0.018526757	0.651450635
0.497148341	0.014996782	0.657148335
0.499750066	0.011486064	0.662832389
0.5015631	0.009050838	0.666782023
0.503376135	0.006624753	0.670719296
0.506110335	0.002983759	0.67662672
0.508550119	-0.000245498	0.681858758
0.510679953	-0.003047197	0.68638849
0.512809786	-0.005830719	0.690876586
0.51493962	-0.008594111	0.695316682
0.517069453	-0.011335582	0.699702514
0.519199287	-0.014053739	0.704028114
0.52183856	-0.01738739	0.709296491
0.523778366	-0.019811465	0.713098732
0.525718173	-0.022212427	0.716838339
0.528273343	-0.025338911	0.721664975
0.530828513	-0.028424116	0.726376285
0.532634477	-0.030579976	0.729636441
0.53444044	-0.032715574	0.732839455
0.537024502	-0.03573628	0.737324929
0.539609946	-0.038717058	0.741700873
0.541707022	-0.041104098	0.745170874
0.543804099	-0.043463793	0.748572713
0.545901175	-0.045796563	0.751909546
0.548439951	-0.048585369	0.755867233
0.550493223	-0.05081305	0.759006438
0.552546496	-0.053015854	0.762093864
0.554599768	-0.055193329	0.765132239
0.557277013	-0.057993501	0.769024014
0.55929573	-0.06007478	0.771908418
0.561314446	-0.062129689	0.774751243
0.563777377	-0.064600742	0.778164836
0.566240309	-0.067031871	0.781519989
0.568103702	-0.068844262	0.784021009
0.569967095	-0.070632518	0.786491217
0.572528601	-0.073049037	0.789839469
0.574936194	-0.075273505	0.792939975
0.577343787	-0.077450879	0.795998537
0.579254295	-0.079145229	0.798397363
0.581164802	-0.080810736	0.800772394
0.583733426	-0.083006074	0.803930113
0.586034656	-0.084931596	0.806726966
0.588335886	-0.086819239	0.809496054
0.590383474	-0.088467847	0.811938419
0.592431062	-0.090088271	0.814361606
0.59447865	-0.091681703	0.816765943
0.596594413	-0.093301289	0.819230137
0.599495168	-0.095480408	0.822573203
0.60147518	-0.096942041	0.824829626
0.603455193	-0.098383593	0.82706341
0.605902948	-0.100138557	0.829790727
0.608350703	-0.101863967	0.832476547
0.610294945	-0.10321352	0.834577455
0.612239187	-0.104544508	0.836647156
0.614770188	-0.106249112	0.839290826
0.61730119	-0.107921284	0.841872475
0.619187835	-0.109145688	0.843753581
0.62107448	-0.110349685	0.845595461
0.623680871	-0.111974537	0.848071641
0.626021557	-0.113387379	0.850223394
0.628362242	-0.114744174	0.852302047
0.63031536	-0.115822391	0.853976638
0.632268479	-0.116840602	0.855592997
0.63472526	-0.118019553	0.857537651
0.637182042	-0.119066587	0.859376562
0.639144543	-0.119798033	0.860764769
0.641107044	-0.12043204	0.862078017
0.643584575	-0.121094371	0.86362566
0.646062107	-0.121612955	0.865048629
0.647972224	-0.121926601	0.866061018
0.649882341	-0.122177232	0.867001138
0.652429782	-0.122433314	0.868146267
0.654977223	-0.122623017	0.869173375
0.656843417	-0.122731782	0.86985546
0.65870961	-0.122821733	0.870481878
0.661338844	-0.122924228	0.871276977
0.663690596	-0.12299699	0.871909299
0.666042348	-0.123054964	0.872475298
0.668032285	-0.123093807	0.872908249
0.670022221	-0.123124276	0.873304026
0.672470596	-0.123151735	0.873746586
